<?xml version="1.0" encoding="UTF-8" standalone="no"?>
<!-- Created with Inkscape (http://www.inkscape.org/) -->

<svg
   xmlns:dc="http://purl.org/dc/elements/1.1/"
   xmlns:cc="http://creativecommons.org/ns#"
   xmlns:rdf="http://www.w3.org/1999/02/22-rdf-syntax-ns#"
   xmlns:svg="http://www.w3.org/2000/svg"
   xmlns="http://www.w3.org/2000/svg"
   xmlns:sodipodi="http://sodipodi.sourceforge.net/DTD/sodipodi-0.dtd"
   xmlns:inkscape="http://www.inkscape.org/namespaces/inkscape"
   width="210mm"
   height="297mm"
   viewBox="0 0 744.09448819 1052.3622047"
   id="svg2"
   version="1.1"
   inkscape:version="0.91 r13725"
   sodipodi:docname="fluentbit_logo_white.svg"
   inkscape:export-filename="/home/edsiper/design/fluentbit/fluentbit_logo.png"
   inkscape:export-xdpi="43.465942"
   inkscape:export-ydpi="43.465942">
  <defs
     id="defs4">
    <linearGradient
       x1="0"
       y1="0"
       x2="1"
       y2="0"
       gradientUnits="userSpaceOnUse"
       gradientTransform="matrix(-6.3753404e-5,-1179.1876,-1278.3165,5.8809556e-5,-2342.2479,1398.2362)"
       spreadMethod="pad"
       id="linearGradient4170">
      <stop
         style="stop-opacity:1;stop-color:#29abe2"
         offset="0"
         id="stop4172" />
      <stop
         style="stop-opacity:1;stop-color:#0071bc"
         offset="0.448486"
         id="stop4174" />
      <stop
         style="stop-opacity:1;stop-color:#1b1464"
         offset="1"
         id="stop4176" />
    </linearGradient>
    <clipPath
       id="clipPath8573"
       clipPathUnits="userSpaceOnUse">
      <path
         inkscape:connector-curvature="0"
         id="path8575"
         d="m 0,1614.161 1560.156,0 L 1560.156,0 0,0 0,1614.161 Z" />
    </clipPath>
  </defs>
  <sodipodi:namedview
     id="base"
     pagecolor="#ffffff"
     bordercolor="#666666"
     borderopacity="1.0"
     inkscape:pageopacity="0.0"
     inkscape:pageshadow="2"
     inkscape:zoom="1.3689867"
     inkscape:cx="301.86579"
     inkscape:cy="626.6894"
     inkscape:document-units="px"
     inkscape:current-layer="layer1"
     showgrid="false"
     inkscape:window-width="1920"
     inkscape:window-height="1136"
     inkscape:window-x="0"
     inkscape:window-y="33"
     inkscape:window-maximized="1" />
  <metadata
     id="metadata7">
    <rdf:RDF>
      <cc:Work
         rdf:about="">
        <dc:format>image/svg+xml</dc:format>
        <dc:type
           rdf:resource="http://purl.org/dc/dcmitype/StillImage" />
      </cc:Work>
    </rdf:RDF>
  </metadata>
  <g
     inkscape:label="Layer 1"
     inkscape:groupmode="layer"
     id="layer1">
    <rect
       style="fill:#dc9300;fill-opacity:1;stroke:#d84700;stroke-width:0.68050385;stroke-miterlimit:4;stroke-dasharray:none;stroke-opacity:0.74458875"
       id="rect4145"
       width="313.65894"
       height="163.55974"
       x="59.704475"
       y="330.70599"
       ry="0.94235891" />
    <text
       xml:space="preserve"
       style="font-style:normal;font-variant:normal;font-weight:bold;font-stretch:normal;font-size:36.23374939px;line-height:125%;font-family:Laksaman;-inkscape-font-specification:'Laksaman, Bold';text-align:start;letter-spacing:0px;word-spacing:0px;writing-mode:lr-tb;text-anchor:start;fill:#ffffff;fill-opacity:1;stroke:none;stroke-width:1px;stroke-linecap:butt;stroke-linejoin:miter;stroke-opacity:1;"
       x="119.42276"
       y="506.15176"
       id="text4136"
       sodipodi:linespacing="125%"
       transform="scale(1.1039466,0.90584092)"
       inkscape:export-xdpi="71.099998"
       inkscape:export-ydpi="71.099998"><tspan
         sodipodi:role="line"
         id="tspan4138"
         x="119.42276"
         y="506.15176"
         style="fill:#ffffff;fill-opacity:1;">Fluent Bit</tspan></text>
    <g
       id="g8577"
       transform="matrix(0.1049461,0,0,-0.09680837,115.21516,404.16736)">
      <path
         d="m 0,0 c 46.525,-65.162 100.514,-116.886 151.241,-158.459 6.644,-5.441 13.253,-10.706 19.791,-15.817 -3.805,-7.657 -8.494,-15.992 -13.851,-24.962 -7.622,0.079 -17.059,0.079 -28.056,0.184 -20.638,0.234 -46.79,0.789 -76.52,3.781 -29.686,3.057 -63.108,8.45 -97.129,20.103 -16.971,5.847 -34.066,13.323 -50.5,23.043 -16.407,9.701 -32.126,21.711 -46.084,36.052 -13.975,14.305 -26.118,30.911 -35.987,48.737 -9.913,17.817 -17.604,36.757 -23.694,55.679 -3.075,9.469 -5.701,18.915 -8.089,28.304 -2.37,9.423 -4.467,18.892 -6,28.592 -1.498,9.724 -2.573,19.633 -1.982,30.454 0.316,5.41 1.092,11.12 2.916,17.112 1.806,5.961 4.881,12.327 9.516,17.786 4.6,5.49 10.442,9.635 15.985,12.345 5.603,2.745 10.935,4.313 15.869,5.427 9.886,2.15 18.53,2.653 26.655,2.939 16.179,0.41 30.321,-0.391 43.3,-1.26 11.967,-0.873 22.822,-1.92 32.585,-3.247 2.643,-6.582 5.375,-13.111 8.265,-19.53 C -44.393,68.382 -23.209,32.522 0,0 m 671.345,75.271 -110.454,24.951 c -1.347,1.612 -2.803,3.247 -4.423,4.895 -5.014,5.071 -11.332,10.075 -18.814,14.446 -7.472,4.384 -16.072,8.146 -25.465,11.178 -9.393,3.035 -19.569,5.357 -30.329,7.001 -5.383,0.828 -10.899,1.485 -16.557,1.987 l -4.256,0.348 -2.15,0.15 -1.066,0.07 -1.304,0.049 c -0.741,0.03 -1.252,0.083 -2.204,0.083 l -2.677,0.009 c -1.675,-0.036 -3.333,-0.062 -5.005,-0.172 -13.369,-0.775 -26.708,-4.224 -39.335,-9.398 -12.663,-5.177 -24.717,-12.036 -36.163,-19.953 -22.911,-15.909 -43.512,-35.96 -62.253,-58.262 -0.661,-0.789 -1.314,-1.591 -1.956,-2.388 -25.44,41.595 -54.5,92.561 -85.218,151.277 -31.086,59.051 -63.584,125.815 -98.856,197.171 -8.856,17.839 -17.931,35.955 -27.483,54.332 -9.596,18.381 -19.519,36.969 -31.035,56.002 -5.833,9.552 -11.966,19.161 -19.825,29.355 -4.019,5.129 -8.345,10.394 -14.663,16.258 -3.225,2.934 -6.935,6.067 -12.407,9.345 -2.758,1.613 -6.018,3.277 -10.142,4.713 -4.044,1.411 -9.173,2.592 -15.024,2.693 -5.842,0.132 -12.336,-1.044 -17.852,-3.322 -5.569,-2.252 -10.019,-5.336 -13.393,-8.296 -1.666,-1.458 -3.243,-3.053 -4.371,-4.314 l -1.648,-1.895 c -1.259,-1.475 -2.326,-2.774 -3.418,-4.162 -4.31,-5.46 -7.984,-10.874 -11.332,-16.284 -6.654,-10.816 -12.046,-21.65 -16.822,-32.585 -9.445,-21.858 -16.283,-44.085 -21.438,-66.55 -5.128,-22.465 -8.459,-45.159 -10.239,-67.862 -3.551,-45.397 -0.748,-90.815 7.392,-134.482 6.362,-34.198 16.091,-67.254 28.321,-98.649 -8.555,2.352 -17.958,4.472 -28.285,6.419 -12.839,2.336 -26.805,4.586 -43.678,5.653 -8.53,0.44 -17.739,0.74 -29.334,-0.833 -5.789,-0.842 -12.328,-2.186 -19.765,-5.155 -7.34,-2.908 -15.825,-7.886 -22.91,-15.23 -7.137,-7.28 -12.133,-16.222 -15.05,-24.201 -2.952,-8.068 -4.309,-15.408 -5.084,-22.1 -1.445,-13.402 -0.819,-24.818 0.202,-35.885 1.075,-11.019 2.777,-21.553 4.74,-32.004 1.949,-10.313 4.31,-21.059 7.183,-31.866 5.709,-21.659 13.64,-44.16 24.954,-65.995 11.261,-21.826 26.056,-42.811 43.749,-60.918 17.65,-18.161 37.969,-33.365 59.188,-45.538 21.253,-12.204 43.352,-21.526 65.381,-28.858 44.164,-14.593 87.913,-21.64 128.684,-26.052 9.129,-0.968 18.1,-1.767 26.945,-2.475 -9.436,-15.226 -19.209,-31.458 -28.452,-48.794 -10.425,-19.51 -20.195,-40.42 -27.73,-62.386 -7.57,-21.918 -12.768,-44.953 -14.654,-67.193 -1.912,-22.241 -0.589,-43.432 3.164,-61.682 3.736,-18.273 9.746,-33.684 17.376,-45.537 7.623,-11.869 16.874,-20.222 27.642,-24.549 -7.71,5.586 -13.966,14.944 -18.654,27.307 -4.67,12.362 -7.754,27.747 -8.661,45.053 -0.917,17.271 0.466,36.463 4.529,55.69 4.009,19.244 10.741,38.401 19.165,56.138 16.883,35.611 40.031,65.726 59.107,88.935 19.183,23.171 56.412,73.409 60.086,80.283 25.898,-18.443 50.05,-34.362 71.418,-48.279 -10.371,25.077 -28.206,52.464 -54.658,83.415 -13.225,15.507 -28.576,31.941 -46.058,49.776 -17.482,17.847 -37.07,37.092 -58.57,58.587 -10.68,10.79 -31.907,30.352 -58.033,59.663 -25.994,29.317 -56.897,68.687 -83.656,119.367 -13.368,25.302 -25.581,53.406 -35.327,84.013 -9.754,30.585 -17.005,63.689 -20.513,98.477 -3.516,34.762 -3.304,71.211 1.771,107.916 2.538,18.346 6.283,36.749 11.543,54.91 5.296,18.133 11.976,36.109 21.157,53.111 2.299,4.242 4.767,8.419 7.499,12.477 1.347,2.027 2.784,4.027 4.273,5.983 0.74,0.956 1.551,2 2.3,2.895 0.846,1.026 1.886,2.123 3.101,3.027 2.388,1.881 5.833,3.026 9.077,2.801 3.234,-0.189 6.062,-1.317 8.503,-2.639 4.873,-2.713 8.661,-6.23 12.221,-9.828 7.006,-7.266 12.873,-15.165 18.47,-23.149 5.577,-8.005 10.803,-16.174 15.851,-24.39 20.108,-32.933 38.101,-66.496 55.875,-99.342 35.281,-65.796 69.003,-129.058 101.72,-185.69 32.612,-56.698 64.113,-106.743 92.433,-147.598 28.232,-40.982 53.354,-72.572 70.686,-95.808 -10.027,17.932 -24.505,40.128 -41.59,67.268 3.128,3.318 6.265,6.626 9.393,9.851 18.997,19.566 38.023,37.449 57.213,51.715 19.122,14.217 38.561,24.707 56.783,28.017 1.153,0.219 2.299,0.382 3.408,0.559 l 1.482,0.207 c 0.431,0.075 1.321,0.114 1.938,0.177 l 0.52,0.044 0.265,0.017 0.123,0.013 c 0.263,0 -0.212,0 -0.123,0.004 l 0.995,0.071 1.947,0.123 3.895,0.225 c 5.155,0.26 10.168,0.428 15.041,0.458 9.746,0.075 18.937,-0.352 27.44,-1.353 17.024,-1.942 31.139,-6.489 41.705,-12.812 8.433,-4.859 14.494,-10.776 19.851,-15.141 0.89,-1.975 1.641,-4.063 2.168,-6.292 3.288,-13.866 -4.203,-23.082 -8.75,-27.219 -27.685,-18.712 -62.508,-47.908 -94.724,-86.31 -23.394,-27.853 -45.378,-60.553 -62.385,-97.583 -8.52,-18.513 -15.772,-38.11 -21.377,-58.707 -2.793,-10.296 -5.199,-20.848 -7.163,-31.611 -0.978,-5.38 -1.851,-10.82 -2.652,-16.284 l -1.129,-8.202 c -0.334,-2.694 -0.758,-5.531 -0.987,-7.892 1.374,1.519 2.988,3.567 4.423,5.299 1.455,1.785 2.873,3.482 4.247,5.058 2.777,3.16 5.393,5.86 7.878,8.129 4.996,4.538 9.517,7.344 13.641,8.86 8.282,3.031 15.086,0.895 20.901,-2.621 11.614,-7.015 17.79,40.617 24.636,92.384 6.284,47.41 33.449,109.854 120.895,186.483 28.708,3.005 103.035,31.404 103.035,31.404"
         style="fill:#ffffff;fill-opacity:1;fill-rule:nonzero;stroke:none"
         id="path8579"
         inkscape:connector-curvature="0" />
    </g>
  </g>
</svg>
