<?xml version="1.0" encoding="UTF-8" standalone="no"?>
<!-- Created with Inkscape (http://www.inkscape.org/) -->

<svg
   xmlns:dc="http://purl.org/dc/elements/1.1/"
   xmlns:cc="http://creativecommons.org/ns#"
   xmlns:rdf="http://www.w3.org/1999/02/22-rdf-syntax-ns#"
   xmlns:svg="http://www.w3.org/2000/svg"
   xmlns="http://www.w3.org/2000/svg"
   xmlns:xlink="http://www.w3.org/1999/xlink"
   xmlns:sodipodi="http://sodipodi.sourceforge.net/DTD/sodipodi-0.dtd"
   xmlns:inkscape="http://www.inkscape.org/namespaces/inkscape"
   width="210mm"
   height="297mm"
   viewBox="0 0 744.09448819 1052.3622047"
   id="svg2"
   version="1.1"
   inkscape:version="0.91 r13725"
   sodipodi:docname="fluentbit_logo.svg"
   inkscape:export-filename="/home/edsiper/design/fluentbit/fluentbit_logo.png"
   inkscape:export-xdpi="43.465942"
   inkscape:export-ydpi="43.465942">
  <defs
     id="defs4">
    <linearGradient
       inkscape:collect="always"
       xlink:href="#linearGradient4170"
       id="linearGradient4146"
       x1="200.39322"
       y1="478.44077"
       x2="200.16446"
       y2="506.31961"
       gradientUnits="userSpaceOnUse"
       gradientTransform="translate(0.4678835,0)" />
    <linearGradient
       x1="0"
       y1="0"
       x2="1"
       y2="0"
       gradientUnits="userSpaceOnUse"
       gradientTransform="matrix(-6.3753404e-5,-1179.1876,-1278.3165,5.8809556e-5,-2342.2479,1398.2362)"
       spreadMethod="pad"
       id="linearGradient4170">
      <stop
         style="stop-opacity:1;stop-color:#29abe2"
         offset="0"
         id="stop4172" />
      <stop
         style="stop-opacity:1;stop-color:#0071bc"
         offset="0.448486"
         id="stop4174" />
      <stop
         style="stop-opacity:1;stop-color:#1b1464"
         offset="1"
         id="stop4176" />
    </linearGradient>
  </defs>
  <sodipodi:namedview
     id="base"
     pagecolor="#ffffff"
     bordercolor="#666666"
     borderopacity="1.0"
     inkscape:pageopacity="0.0"
     inkscape:pageshadow="2"
     inkscape:zoom="1.9360395"
     inkscape:cx="309.41202"
     inkscape:cy="685.19823"
     inkscape:document-units="px"
     inkscape:current-layer="layer1"
     showgrid="false"
     inkscape:window-width="1920"
     inkscape:window-height="1136"
     inkscape:window-x="0"
     inkscape:window-y="33"
     inkscape:window-maximized="1" />
  <metadata
     id="metadata7">
    <rdf:RDF>
      <cc:Work
         rdf:about="">
        <dc:format>image/svg+xml</dc:format>
        <dc:type
           rdf:resource="http://purl.org/dc/dcmitype/StillImage" />
      </cc:Work>
    </rdf:RDF>
  </metadata>
  <g
     inkscape:label="Layer 1"
     inkscape:groupmode="layer"
     id="layer1">
    <text
       xml:space="preserve"
       style="font-style:normal;font-variant:normal;font-weight:bold;font-stretch:normal;font-size:36.23374939px;line-height:125%;font-family:Laksaman;-inkscape-font-specification:'Laksaman, Bold';text-align:start;letter-spacing:0px;word-spacing:0px;writing-mode:lr-tb;text-anchor:start;fill:url(#linearGradient4146);fill-opacity:1;stroke:none;stroke-width:1px;stroke-linecap:butt;stroke-linejoin:miter;stroke-opacity:1"
       x="119.42276"
       y="506.15176"
       id="text4136"
       sodipodi:linespacing="125%"
       transform="scale(1.1039466,0.90584092)"
       inkscape:export-xdpi="71.099998"
       inkscape:export-ydpi="71.099998"><tspan
         sodipodi:role="line"
         id="tspan4138"
         x="119.42276"
         y="506.15176"
         style="fill:url(#linearGradient4146);fill-opacity:1">Fluent Bit</tspan></text>
    <g
       transform="matrix(0.07449603,0,0,-0.07449603,312.3377,466.81647)"
       id="g4158"
       inkscape:export-xdpi="71.099998"
       inkscape:export-ydpi="71.099998">
      <g
         id="g4160">
        <g
           id="g4166">
          <g
             id="g4168">
            <path
               d="m -2683.8788,1549.3583 c -7.8439,-2.9315 -14.1135,-6.939 -18.8685,-10.7861 l 0,0 c -2.3456,-1.8901 -4.5672,-3.9625 -6.1554,-5.601 l 0,0 -2.3233,-2.4615 c -1.7734,-1.9235 -3.2754,-3.6069 -4.8149,-5.4033 l 0,0 c -6.0719,-7.1008 -11.2473,-14.131 -15.9648,-21.1625 l 0,0 c -9.3709,-14.0603 -16.9698,-28.1451 -23.6959,-42.3441 l 0,0 c -13.3075,-28.4097 -22.9401,-57.2995 -30.2022,-86.4873 l 0,0 c -7.2244,-29.1878 -11.9168,-58.685 -14.4224,-88.1809 l 0,0 c -5.0043,-58.9945 -1.0566,-118.0249 10.4135,-174.762 l 0,0 c 8.9616,-44.4513 22.6658,-87.4028 39.8974,-128.20228 l 0,0 c -12.0547,3.05861 -25.2996,5.81804 -39.8487,8.33606 l 0,0 c -18.0848,3.04705 -37.7621,5.9657 -61.5318,7.3512 l 0,0 c -12.0171,0.57392 -24.9891,0.96302 -41.3255,-1.07604 l 0,0 c -8.1544,-1.09915 -17.3652,-2.84032 -27.8414,-6.70917 l 0,0 c -10.3411,-3.77896 -22.2942,-10.23774 -32.2748,-19.78723 l 0,0 c -10.0544,-9.45832 -17.0937,-21.08156 -21.2028,-31.44385 l 0,0 c -4.1579,-10.48942 -6.0705,-20.02735 -7.1619,-28.71781 l 0,0 c -2.0351,-17.42843 -1.1553,-32.25794 0.284,-46.63932 l 0,0 c 1.5159,-14.32616 3.9115,-28.00773 6.6788,-41.58914 l 0,0 c 2.745,-13.40935 6.0705,-27.36699 10.1184,-41.41708 l 0,0 c 8.0444,-28.14641 19.2165,-57.38041 35.1549,-85.75409 l 0,0 c 15.8632,-28.36341 36.7055,-55.63923 61.6306,-79.1592 l 0,0 c 24.8652,-23.61114 53.4902,-43.37526 83.3819,-59.17937 l 0,0 c 29.9405,-15.8683 61.0724,-27.98333 92.1056,-37.50971 l 0,0 c 62.2152,-18.96415 123.8486,-28.12329 181.2838,-33.84888 l 0,0 c 12.8606,-1.25965 25.4972,-2.28946 37.9597,-3.22939 l 0,0 c -13.295,-19.78594 -27.0604,-40.87906 -40.0811,-63.39105 l 0,0 c -14.6856,-25.34974 -28.451,-52.53568 -39.065,-81.07115 l 0,0 c -10.6641,-28.48925 -17.9874,-58.42049 -20.6433,-87.3232 l 0,0 c -2.6935,-28.90143 -0.8324,-56.45204 4.4558,-80.15435 l 0,0 c 5.2645,-23.74853 13.7292,-43.78872 24.4796,-59.17808 l 0,0 c 10.7365,-15.435578 23.7697,-26.289665 38.9411,-31.90097 l 0,0 c -10.8617,7.260027 -19.6759,19.421278 -26.2809,35.47449 l 0,0 c -6.5786,16.07632 -10.923,36.07029 -12.2022,58.55917 l 0,0 c -1.2918,22.44265 0.6584,47.38278 6.3823,72.36785 l 0,0 c 5.6473,25.00819 15.131,49.90209 26.9977,72.94183 l 0,0 c 23.7837,46.28363 56.394,85.42152 83.2692,115.58389 l 0,0 c 27.0228,30.11357 79.4705,95.3819 84.6473,104.31377 l 0,0 c 36.4814,-23.95398 70.5074,-44.63492 100.6093,-62.72592 l 0,0 c -14.6118,32.58923 -39.7346,68.178 -77.0011,108.39321 l 0,0 c -18.6318,20.15318 -40.2565,41.5198 -64.8837,64.69564 l 0,0 c -24.6272,23.17585 -52.2221,48.19559 -82.5119,76.12499 l 0,0 c -15.0447,14.02698 -44.9489,39.44606 -81.7533,77.54387 l 0,0 c -36.6192,38.08496 -80.1525,89.24799 -117.8533,155.11084 l 0,0 c -18.8296,32.88713 -36.0346,69.40297 -49.7639,109.17267 l 0,0 c -13.7418,39.7568 -23.9576,82.7648 -28.8978,127.9711 l 0,0 c -4.9527,45.1858 -4.6562,92.5454 2.4944,140.2492 l 0,0 c 3.5761,23.8397 8.8517,47.7488 16.2613,71.3483 l 0,0 c 7.4611,23.5662 16.8696,46.927 29.8041,69.014 l 0,0 c 3.2405,5.5201 6.7163,10.9465 10.5638,16.2137 l 0,0 c 1.9001,2.6336 3.9241,5.2453 6.0218,7.7865 l 0,0 c 1.0426,1.2378 2.184,2.5886 3.2392,3.7558 l 0,0 c 1.1929,1.329 2.6559,2.762 4.3694,3.9395 l 0,0 c 3.3645,2.4397 8.217,3.9279 12.7855,3.6415 l 0,0 c 4.556,-0.2529 8.5413,-1.7167 11.9795,-3.4335 l 0,0 c 6.8626,-3.5286 12.2023,-8.0972 17.2162,-12.7802 l 0,0 c 9.8693,-9.4365 18.1364,-19.696 26.0192,-30.0699 l 0,0 c 7.8578,-10.4098 15.2187,-21.0225 22.3318,-31.6955 l 0,0 c 28.3257,-42.8026 53.6754,-86.4192 78.7118,-129.0947 l 0,0 c 49.704,-85.514 97.2086,-167.7189 143.3004,-241.313 l 0,0 c 45.9414,-73.6738 90.3196,-138.71485 130.2156,-191.79882 l 0,0 c 39.7721,-53.27016 75.1622,-94.30844 99.5792,-124.51575 l 0,0 c -14.126,23.31323 -34.5215,52.14661 -58.5905,87.41436 l 0,0 c 4.4057,4.31827 8.8253,8.61214 13.2323,12.80328 l 0,0 c 26.7626,25.43192 53.564,48.66427 80.5994,67.21496 l 0,0 c 26.9365,18.46979 54.3212,32.1077 79.991,36.40157 l 0,0 c 1.6273,0.28635 3.2406,0.49308 4.8038,0.72164 l 0,0 2.0866,0.2735 c 0.6083,0.0924 1.8611,0.15024 2.7311,0.22985 l 0,0 0.7322,0.0578 0.3716,0.0218 0.174,0.0115 c 0.3731,0 -0.2992,0 -0.174,0.0116 l 0,0 1.4032,0.0912 2.7436,0.16307 5.4859,0.28506 c 7.262,0.34284 14.325,0.56113 21.1903,0.59452 l 0,0 c 13.7293,0.10272 26.6762,-0.45841 38.6557,-1.75016 l 0,0 c 23.9813,-2.53087 43.8674,-8.44007 58.752,-16.6503 l 0,0 c 11.8793,-6.30983 20.4192,-14.00515 27.9666,-19.68322 l 0,0 c 1.2542,-2.56554 2.3079,-5.26847 3.054,-8.17684 l 0,0 c 4.6298,-18.01139 -5.9215,-29.99031 -12.3261,-35.35893 l 0,0 c -39.0037,-24.32121 -88.0604,-62.27007 -133.4451,-112.17216 l 0,0 c -32.9555,-36.18457 -63.9274,-78.68924 -87.885,-126.80522 l 0,0 c -12.0032,-24.06954 -22.2204,-49.53485 -30.1158,-76.28421 l 0,0 c -3.9338,-13.39779 -7.3233,-27.0922 -10.0906,-41.08579 l 0,0 c -1.3767,-6.98396 -2.6072,-14.06037 -3.7375,-21.16117 l 0,0 -1.5869,-10.67175 c -0.4719,-3.47978 -1.0691,-7.16758 -1.392,-10.23518 l 0,0 c 1.9363,1.96846 4.208,4.62516 6.232,6.8684 l 0,0 c 2.049,2.33569 4.0479,4.53655 5.9828,6.57434 l 0,0 c 3.9115,4.1218 7.5975,7.6247 11.097,10.58058 l 0,0 c 7.0393,5.88609 13.4077,9.52638 19.2151,11.49483 l 0,0 c 11.6705,3.94076 21.253,1.16977 29.4462,-3.38861 l 0,0 c 16.3602,-9.11548 25.0615,52.76424 34.7081,120.04854 l 0,0 c 8.8489,61.60622 47.1204,142.7557 170.3092,242.34416 l 0,0 c 40.4431,3.89324 145.1504,40.81101 145.1504,40.81101 l 0,0 -155.6029,32.41587 c -1.8972,2.09558 -3.9463,4.22453 -6.2305,6.35477 l 0,0 c -7.0616,6.59489 -15.9634,13.0999 -26.5022,18.77926 l 0,0 c -10.5263,5.70247 -22.6408,10.58058 -35.8745,14.51877 l 0,0 c -13.2324,3.95102 -27.5699,6.96341 -42.7274,9.10392 l 0,0 c -7.5835,1.07604 -15.3551,1.93507 -23.3242,2.57581 l 0,0 -5.9954,0.4584 -3.0289,0.19518 -1.502,0.0912 -1.8374,0.0565 c -1.044,0.0462 -1.7623,0.11428 -3.1028,0.11428 l 0,0 -3.7737,0.0116 c -2.3594,-0.0449 -4.691,-0.0796 -7.0505,-0.21572 l 0,0 c -18.8309,-1.00798 -37.6256,-5.49574 -55.4139,-12.21903 l 0,0 c -17.837,-6.72073 -34.8194,-15.64103 -50.9443,-25.93527 l 0,0 c -32.2734,-20.66938 -61.2965,-46.71893 -87.6985,-75.71281 l 0,0 c -0.9312,-1.01825 -1.8513,-2.0609 -2.7561,-3.09071 l 0,0 c -35.8384,54.04701 -76.7783,120.27838 -120.0513,196.58702 l 0,0 c -43.7922,76.7298 -89.5736,163.4918 -139.2636,256.2196 l 0,0 c -12.4751,23.1758 -25.2606,46.7189 -38.717,70.6049 l 0,0 c -13.5177,23.8872 -27.4947,48.0466 -43.7198,72.78 l 0,0 c -8.2169,12.4142 -16.8585,24.8952 -27.9304,38.1427 l 0,0 c -5.6598,6.6643 -11.754,13.5006 -20.6558,21.1265 l 0,0 c -4.5435,3.8137 -9.769,7.879 -17.4779,12.1382 l 0,0 c -3.8865,2.1071 -8.4787,4.2605 -14.2875,6.1377 l 0,0 c -5.6988,1.8324 -12.9219,3.3668 -21.1653,3.4927 l 0,0 c -0.4148,0.013 -0.8324,0.013 -1.25,0.013 l 0,0 c -7.8981,0 -16.5202,-1.5242 -23.8991,-4.3298 m 217.9294,-996.92216 c -29.0718,0.31973 -65.9152,1.02981 -107.7975,4.92563 l 0,0 c -41.8211,3.96001 -88.9054,10.96836 -136.8318,26.12916 l 0,0 c -23.9089,7.57975 -47.9905,17.31286 -71.1421,29.93252 l 0,0 c -23.1127,12.61837 -45.258,28.21446 -64.9227,46.85632 l 0,0 c -19.6856,18.59563 -36.7918,40.16898 -50.6937,63.33327 l 0,0 c -13.9645,23.15273 -24.8012,47.76158 -33.3801,72.3563 l 0,0 c -4.3332,12.29864 -8.0318,24.57418 -11.3948,36.78165 l 0,0 c -3.3394,12.25114 -6.2946,24.5485 -8.4536,37.15531 l 0,0 c -2.1103,12.63122 -3.6262,25.51411 -2.7924,39.57447 l 0,0 c 0.4455,7.03147 1.5382,14.45071 4.1078,22.2372 l 0,0 c 2.5446,7.75182 6.8765,16.01983 13.4077,23.11935 l 0,0 c 6.4784,7.12263 14.7092,12.51565 22.5155,16.03138 l 0,0 c 7.8954,3.57223 15.4066,5.61002 22.3583,7.05329 l 0,0 c 13.9255,2.7941 26.1041,3.45796 37.5491,3.82519 l 0,0 c 22.7897,0.52518 42.7147,-0.50463 60.9986,-1.63845 l 0,0 c 16.8571,-1.13381 32.1523,-2.49619 45.9038,-4.22581 l 0,0 c 3.725,-8.54151 7.5739,-17.03808 11.6455,-25.37286 l 0,0 c 24.4782,-50.52228 54.3198,-97.12693 87.0164,-139.39148 l 0,0 c 65.5435,-84.67677 141.598,-151.89301 213.0631,-205.91819 l 0,0 c 9.3597,-7.07641 18.6694,-13.92297 27.8802,-20.56409 l 0,0 c -5.3619,-9.93984 -11.9669,-20.77081 -19.5143,-32.42872 l 0,0 c -10.7379,0.0912 -24.0329,0.0912 -39.523,0.22856"
               style="fill:url(#linearGradient4170);stroke:none"
               id="path4178"
               inkscape:connector-curvature="0" />
          </g>
        </g>
      </g>
    </g>
  </g>
</svg>
